 0
SECTION
 2
HEADER
 9
$ACADVER
 1
AC1009
 0
ENDSEC
 0
SECTION
 2
ENTITIES
 0
POLYLINE
 8
TITLE
 66
1
 70
1
 10
0.0
 20
0.0
 30
0.0
 0
VERTEX
 8
TITLE
 10
 -0.1000
 20
  0.1000
 30
0.0
 0
VERTEX
 8
TITLE
 10
  9.6000
 20
  0.1000
 30
0.0
 0
VERTEX
 8
TITLE
 10
  9.6000
 20
  7.3000
 30
0.0
 0
VERTEX
 8
TITLE
 10
 -0.1000
 20
  7.3000
 30
0.0
 0
SEQEND
 8
TITLE
 0
POLYLINE
 8
TITLE
 66
1
 70
1
 10
0.0
 20
0.0
 30
0.0
 0
VERTEX
 8
TITLE
 10
  0.0000
 20
  0.2000
 30
0.0
 0
VERTEX
 8
TITLE
 10
  9.5000
 20
  0.2000
 30
0.0
 0
VERTEX
 8
TITLE
 10
  9.5000
 20
  7.2000
 30
0.0
 0
VERTEX
 8
TITLE
 10
  0.0000
 20
  7.2000
 30
0.0
 0
SEQEND
 8
TITLE
 0
POLYLINE
 8
TITLE
 66
1
 10
0.0
 20
0.0
 30
0.0
 0
VERTEX
 8
TITLE
 10
  2.0600
 20
  0.2000
 30
0.0
 0
VERTEX
 8
TITLE
 10
  2.0600
 20
  0.1000
 30
0.0
 0
SEQEND
 8
TITLE
 0
POLYLINE
 8
TITLE
 66
1
 10
0.0
 20
0.0
 30
0.0
 0
VERTEX
 8
TITLE
 10
  2.0600
 20
  7.2000
 30
0.0
 0
VERTEX
 8
TITLE
 10
  2.0600
 20
  7.3000
 30
0.0
 0
SEQEND
 8
TITLE
 0
POLYLINE
 8
TITLE
 66
1
 10
0.0
 20
0.0
 30
0.0
 0
VERTEX
 8
TITLE
 10
  3.9200
 20
  0.2000
 30
0.0
 0
VERTEX
 8
TITLE
 10
  3.9200
 20
  0.1000
 30
0.0
 0
SEQEND
 8
TITLE
 0
POLYLINE
 8
TITLE
 66
1
 10
0.0
 20
0.0
 30
0.0
 0
VERTEX
 8
TITLE
 10
  3.9200
 20
  7.2000
 30
0.0
 0
VERTEX
 8
TITLE
 10
  3.9200
 20
  7.3000
 30
0.0
 0
SEQEND
 8
TITLE
 0
POLYLINE
 8
TITLE
 66
1
 10
0.0
 20
0.0
 30
0.0
 0
VERTEX
 8
TITLE
 10
  5.7800
 20
  0.2000
 30
0.0
 0
VERTEX
 8
TITLE
 10
  5.7800
 20
  0.1000
 30
0.0
 0
SEQEND
 8
TITLE
 0
POLYLINE
 8
TITLE
 66
1
 10
0.0
 20
0.0
 30
0.0
 0
VERTEX
 8
TITLE
 10
  5.7800
 20
  7.2000
 30
0.0
 0
VERTEX
 8
TITLE
 10
  5.7800
 20
  7.3000
 30
0.0
 0
SEQEND
 8
TITLE
 0
POLYLINE
 8
TITLE
 66
1
 10
0.0
 20
0.0
 30
0.0
 0
VERTEX
 8
TITLE
 10
  7.6400
 20
  0.2000
 30
0.0
 0
VERTEX
 8
TITLE
 10
  7.6400
 20
  0.1000
 30
0.0
 0
SEQEND
 8
TITLE
 0
POLYLINE
 8
TITLE
 66
1
 10
0.0
 20
0.0
 30
0.0
 0
VERTEX
 8
TITLE
 10
  7.6400
 20
  7.2000
 30
0.0
 0
VERTEX
 8
TITLE
 10
  7.6400
 20
  7.3000
 30
0.0
 0
SEQEND
 8
TITLE
 0
TEXT
 8
TITLE
 10
  1.1300
 20
  0.1200
 30
0.0
 40
  0.0500
 1
5
 0
TEXT
 8
TITLE
 10
  1.1300
 20
  7.2200
 30
0.0
 40
  0.0500
 1
5
 0
TEXT
 8
TITLE
 10
  2.9900
 20
  0.1200
 30
0.0
 40
  0.0500
 1
4
 0
TEXT
 8
TITLE
 10
  2.9900
 20
  7.2200
 30
0.0
 40
  0.0500
 1
4
 0
TEXT
 8
TITLE
 10
  4.8500
 20
  0.1200
 30
0.0
 40
  0.0500
 1
3
 0
TEXT
 8
TITLE
 10
  4.8500
 20
  7.2200
 30
0.0
 40
  0.0500
 1
3
 0
TEXT
 8
TITLE
 10
  6.7100
 20
  0.1200
 30
0.0
 40
  0.0500
 1
2
 0
TEXT
 8
TITLE
 10
  6.7100
 20
  7.2200
 30
0.0
 40
  0.0500
 1
2
 0
TEXT
 8
TITLE
 10
  8.5700
 20
  0.1200
 30
0.0
 40
  0.0500
 1
1
 0
TEXT
 8
TITLE
 10
  8.5700
 20
  7.2200
 30
0.0
 40
  0.0500
 1
1
 0
POLYLINE
 8
TITLE
 66
1
 10
0.0
 20
0.0
 30
0.0
 0
VERTEX
 8
TITLE
 10
 -0.1000
 20
  5.3000
 30
0.0
 0
VERTEX
 8
TITLE
 10
  0.0000
 20
  5.3000
 30
0.0
 0
SEQEND
 8
TITLE
 0
POLYLINE
 8
TITLE
 66
1
 10
0.0
 20
0.0
 30
0.0
 0
VERTEX
 8
TITLE
 10
  9.5000
 20
  5.3000
 30
0.0
 0
VERTEX
 8
TITLE
 10
  9.6000
 20
  5.3000
 30
0.0
 0
SEQEND
 8
TITLE
 0
SOLID
 8
TITLE
 10
  0.0000
 20
  3.6000
 30
0.0
 11
 -0.0500
 21
  3.6200
 31
0.0
 12
 -0.0500
 22
  3.5800
 32
0.0
 13
 -0.0500
 23
  3.6000
 33
0.0
 0
SOLID
 8
TITLE
 10
  9.5000
 20
  3.6000
 30
0.0
 11
  9.5500
 21
  3.6200
 31
0.0
 12
  9.5500
 22
  3.5800
 32
0.0
 13
  9.5500
 23
  3.6000
 33
0.0
 0
POLYLINE
 8
TITLE
 66
1
 10
0.0
 20
0.0
 30
0.0
 0
VERTEX
 8
TITLE
 10
 -0.1000
 20
  3.6000
 30
0.0
 0
VERTEX
 8
TITLE
 10
  0.0000
 20
  3.6000
 30
0.0
 0
SEQEND
 8
TITLE
 0
POLYLINE
 8
TITLE
 66
1
 10
0.0
 20
0.0
 30
0.0
 0
VERTEX
 8
TITLE
 10
  9.5000
 20
  3.6000
 30
0.0
 0
VERTEX
 8
TITLE
 10
  9.6000
 20
  3.6000
 30
0.0
 0
SEQEND
 8
TITLE
 0
SOLID
 8
TITLE
 10
  0.0000
 20
  3.6000
 30
0.0
 11
 -0.0500
 21
  3.6200
 31
0.0
 12
 -0.0500
 22
  3.5800
 32
0.0
 13
 -0.0500
 23
  3.6000
 33
0.0
 0
SOLID
 8
TITLE
 10
  9.5000
 20
  3.6000
 30
0.0
 11
  9.5500
 21
  3.6200
 31
0.0
 12
  9.5500
 22
  3.5800
 32
0.0
 13
  9.5500
 23
  3.6000
 33
0.0
 0
POLYLINE
 8
TITLE
 66
1
 10
0.0
 20
0.0
 30
0.0
 0
VERTEX
 8
TITLE
 10
 -0.1000
 20
  1.9000
 30
0.0
 0
VERTEX
 8
TITLE
 10
  0.0000
 20
  1.9000
 30
0.0
 0
SEQEND
 8
TITLE
 0
POLYLINE
 8
TITLE
 66
1
 10
0.0
 20
0.0
 30
0.0
 0
VERTEX
 8
TITLE
 10
  9.5000
 20
  1.9000
 30
0.0
 0
VERTEX
 8
TITLE
 10
  9.6000
 20
  1.9000
 30
0.0
 0
SEQEND
 8
TITLE
 0
SOLID
 8
TITLE
 10
  0.0000
 20
  3.6000
 30
0.0
 11
 -0.0500
 21
  3.6200
 31
0.0
 12
 -0.0500
 22
  3.5800
 32
0.0
 13
 -0.0500
 23
  3.6000
 33
0.0
 0
SOLID
 8
TITLE
 10
  9.5000
 20
  3.6000
 30
0.0
 11
  9.5500
 21
  3.6200
 31
0.0
 12
  9.5500
 22
  3.5800
 32
0.0
 13
  9.5500
 23
  3.6000
 33
0.0
 0
TEXT
 8
TITLE
 10
 -0.0800
 20
  6.1500
 30
0.0
 40
  0.0500
 1
D
 0
TEXT
 8
TITLE
 10
  9.5200
 20
  6.1500
 30
0.0
 40
  0.0500
 1
D
 0
TEXT
 8
TITLE
 10
 -0.0800
 20
  4.4500
 30
0.0
 40
  0.0500
 1
C
 0
TEXT
 8
TITLE
 10
  9.5200
 20
  4.4500
 30
0.0
 40
  0.0500
 1
C
 0
TEXT
 8
TITLE
 10
 -0.0800
 20
  2.7500
 30
0.0
 40
  0.0500
 1
B
 0
TEXT
 8
TITLE
 10
  9.5200
 20
  2.7500
 30
0.0
 40
  0.0500
 1
B
 0
TEXT
 8
TITLE
 10
 -0.0800
 20
  1.0500
 30
0.0
 40
  0.0500
 1
A
 0
TEXT
 8
TITLE
 10
  9.5200
 20
  1.0500
 30
0.0
 40
  0.0500
 1
A
 0
TEXT
 8
TITLE
 10
  6.3000
 20
  0.4186
 30
0.0
 40
  0.0514
 1
<Doc>
 0
TEXT
 8
TITLE
 10
  9.3000
 20
  0.4186
 30
0.0
 40
  0.0514
 1
<RevCode>
 0
TEXT
 8
TITLE
 10
  6.3000
 20
  0.7186
 30
0.0
 40
  0.0514
 1
<Title>
 0
TEXT
 8
TITLE
 10
  6.0000
 20
  0.4186
 30
0.0
 40
  0.0514
 1
A
 0
TEXT
 8
TITLE
 10
  8.4000
 20
  0.2186
 30
0.0
 40
  0.0514
 1
1
 0
TEXT
 8
TITLE
 10
  9.0000
 20
  0.2186
 30
0.0
 40
  0.0514
 1
1
 0
TEXT
 8
TITLE
 10
  6.4200
 20
  0.2186
 30
0.0
 40
  0.0514
 1
Thursday, April 23, 2015
 0
TEXT
 8
PARTTEXT
 10
  5.9000
 20
  0.8186
 30
0.0
 40
  0.0514
 1
Title
 0
TEXT
 8
PARTTEXT
 10
  5.9000
 20
  0.5186
 30
0.0
 40
  0.0514
 1
Size
 0
TEXT
 8
PARTTEXT
 10
  6.3000
 20
  0.5186
 30
0.0
 40
  0.0514
 1
Document Number
 0
TEXT
 8
PARTTEXT
 10
  9.2000
 20
  0.5186
 30
0.0
 40
  0.0514
 1
Rev
 0
TEXT
 8
PARTTEXT
 10
  5.9000
 20
  0.2186
 30
0.0
 40
  0.0514
 1
Date:
 0
TEXT
 8
PARTTEXT
 10
  7.9000
 20
  0.2186
 30
0.0
 40
  0.0514
 1
Sheet
 0
POLYLINE
 8
TITLE
 66
1
 70
1
 10
0.0
 20
0.0
 30
0.0
 0
VERTEX
 8
TITLE
 10
  5.9000
 20
  1.1000
 30
0.0
 0
VERTEX
 8
TITLE
 10
  9.5000
 20
  1.1000
 30
0.0
 0
VERTEX
 8
TITLE
 10
  9.5000
 20
  0.9000
 30
0.0
 0
VERTEX
 8
TITLE
 10
  5.9000
 20
  0.9000
 30
0.0
 0
SEQEND
 8
TITLE
 0
POLYLINE
 8
TITLE
 66
1
 70
1
 10
0.0
 20
0.0
 30
0.0
 0
VERTEX
 8
TITLE
 10
  5.9000
 20
  0.9000
 30
0.0
 0
VERTEX
 8
TITLE
 10
  9.5000
 20
  0.9000
 30
0.0
 0
VERTEX
 8
TITLE
 10
  9.5000
 20
  0.6000
 30
0.0
 0
VERTEX
 8
TITLE
 10
  5.9000
 20
  0.6000
 30
0.0
 0
SEQEND
 8
TITLE
 0
POLYLINE
 8
TITLE
 66
1
 70
1
 10
0.0
 20
0.0
 30
0.0
 0
VERTEX
 8
TITLE
 10
  5.9000
 20
  0.6000
 30
0.0
 0
VERTEX
 8
TITLE
 10
  6.2000
 20
  0.6000
 30
0.0
 0
VERTEX
 8
TITLE
 10
  6.2000
 20
  0.3000
 30
0.0
 0
VERTEX
 8
TITLE
 10
  5.9000
 20
  0.3000
 30
0.0
 0
SEQEND
 8
TITLE
 0
POLYLINE
 8
TITLE
 66
1
 70
1
 10
0.0
 20
0.0
 30
0.0
 0
VERTEX
 8
TITLE
 10
  6.2000
 20
  0.6000
 30
0.0
 0
VERTEX
 8
TITLE
 10
  9.2000
 20
  0.6000
 30
0.0
 0
VERTEX
 8
TITLE
 10
  9.2000
 20
  0.3000
 30
0.0
 0
VERTEX
 8
TITLE
 10
  6.2000
 20
  0.3000
 30
0.0
 0
SEQEND
 8
TITLE
 0
POLYLINE
 8
TITLE
 66
1
 70
1
 10
0.0
 20
0.0
 30
0.0
 0
VERTEX
 8
TITLE
 10
  9.2000
 20
  0.6000
 30
0.0
 0
VERTEX
 8
TITLE
 10
  9.5000
 20
  0.6000
 30
0.0
 0
VERTEX
 8
TITLE
 10
  9.5000
 20
  0.3000
 30
0.0
 0
VERTEX
 8
TITLE
 10
  9.2000
 20
  0.3000
 30
0.0
 0
SEQEND
 8
TITLE
 0
POLYLINE
 8
TITLE
 66
1
 70
1
 10
0.0
 20
0.0
 30
0.0
 0
VERTEX
 8
TITLE
 10
  5.9000
 20
  0.3000
 30
0.0
 0
VERTEX
 8
TITLE
 10
  7.9000
 20
  0.3000
 30
0.0
 0
VERTEX
 8
TITLE
 10
  7.9000
 20
  0.2000
 30
0.0
 0
VERTEX
 8
TITLE
 10
  5.9000
 20
  0.2000
 30
0.0
 0
SEQEND
 8
TITLE
 0
POLYLINE
 8
TITLE
 66
1
 70
1
 10
0.0
 20
0.0
 30
0.0
 0
VERTEX
 8
TITLE
 10
  7.9000
 20
  0.3000
 30
0.0
 0
VERTEX
 8
TITLE
 10
  9.5000
 20
  0.3000
 30
0.0
 0
VERTEX
 8
TITLE
 10
  9.5000
 20
  0.2000
 30
0.0
 0
VERTEX
 8
TITLE
 10
  7.9000
 20
  0.2000
 30
0.0
 0
SEQEND
 8
TITLE
 0
TEXT
 8
PARTTEXT
 10
  8.7000
 20
  0.2186
 30
0.0
 40
  0.0514
 1
of
 0
TEXT
 8
PARTTEXT
 10
  7.2900
 20
  5.2386
 30
0.0
 40
  0.0514
 1
V2
 0
TEXT
 8
PARTTEXT
 10
  6.9000
 20
  5.1186
 30
0.0
 40
  0.0514
 1
12Vdc
 0
TEXT
 8
PARTTEXT
 10
  7.2900
 20
  5.1386
 30
0.0
 40
  0.0514
 1
258.1W
 0
TEXT
 8
PARTS
 10
  7.2000
 20
  5.2186
 30
0.0
 40
  0.0514
 1
21.51A
 0
LINE
 8
PARTS
 10
  7.2000
 20
  4.9000
 30
0.0
 11
  7.2000
 21
  5.0000
 31
0.0
 0
POLYLINE
 8
PARTS
 66
1
 10
0.0
 20
0.0
 30
0.0
 0
VERTEX
 8
PARTS
 10
  7.1500
 20
  5.1300
 30
0.0
 0
VERTEX
 8
PARTS
 10
  7.2500
 20
  5.1300
 30
0.0
 0
SEQEND
 8
PARTS
 0
POLYLINE
 8
PARTS
 66
1
 10
0.0
 20
0.0
 30
0.0
 0
VERTEX
 8
PARTS
 10
  7.3000
 20
  5.1000
 30
0.0
 0
VERTEX
 8
PARTS
 10
  7.1000
 20
  5.1000
 30
0.0
 0
SEQEND
 8
PARTS
 0
POLYLINE
 8
PARTS
 66
1
 10
0.0
 20
0.0
 30
0.0
 0
VERTEX
 8
PARTS
 10
  7.1500
 20
  5.0600
 30
0.0
 0
VERTEX
 8
PARTS
 10
  7.2500
 20
  5.0600
 30
0.0
 0
SEQEND
 8
PARTS
 0
POLYLINE
 8
PARTS
 66
1
 10
0.0
 20
0.0
 30
0.0
 0
VERTEX
 8
PARTS
 10
  7.2000
 20
  5.2100
 30
0.0
 0
VERTEX
 8
PARTS
 10
  7.2000
 20
  5.1600
 30
0.0
 0
SEQEND
 8
PARTS
 0
POLYLINE
 8
PARTS
 66
1
 10
0.0
 20
0.0
 30
0.0
 0
VERTEX
 8
PARTS
 10
  7.2000
 20
  5.0000
 30
0.0
 0
VERTEX
 8
PARTS
 10
  7.2000
 20
  5.0600
 30
0.0
 0
SEQEND
 8
PARTS
 0
POLYLINE
 8
PARTS
 66
1
 10
0.0
 20
0.0
 30
0.0
 0
VERTEX
 8
PARTS
 10
  7.1000
 20
  5.1600
 30
0.0
 0
VERTEX
 8
PARTS
 10
  7.3000
 20
  5.1600
 30
0.0
 0
SEQEND
 8
PARTS
 0
POLYLINE
 8
PARTS
 66
1
 10
0.0
 20
0.0
 30
0.0
 0
VERTEX
 8
PARTS
 10
  7.2000
 20
  5.2000
 30
0.0
 0
VERTEX
 8
PARTS
 10
  7.2000
 20
  5.3000
 30
0.0
 0
SEQEND
 8
PARTS
 0
POLYLINE
 8
PARTS
 66
1
 10
0.0
 20
0.0
 30
0.0
 0
VERTEX
 8
PARTS
 10
  7.1300
 20
  5.2200
 30
0.0
 0
VERTEX
 8
PARTS
 10
  7.1300
 20
  5.2000
 30
0.0
 0
SEQEND
 8
PARTS
 0
POLYLINE
 8
PARTS
 66
1
 10
0.0
 20
0.0
 30
0.0
 0
VERTEX
 8
PARTS
 10
  7.1200
 20
  5.2100
 30
0.0
 0
VERTEX
 8
PARTS
 10
  7.1400
 20
  5.2100
 30
0.0
 0
SEQEND
 8
PARTS
 0
POLYLINE
 8
PARTS
 66
1
 10
0.0
 20
0.0
 30
0.0
 0
VERTEX
 8
PARTS
 10
  7.1200
 20
  5.0200
 30
0.0
 0
VERTEX
 8
PARTS
 10
  7.1400
 20
  5.0200
 30
0.0
 0
SEQEND
 8
PARTS
 0
TEXT
 8
PARTTEXT
 10
  5.9600
 20
  4.4186
 30
0.0
 40
  0.0514
 1
R4
 0
TEXT
 8
PARTTEXT
 10
  5.9600
 20
  4.2986
 30
0.0
 40
  0.0514
 1
10k
 0
TEXT
 8
PARTTEXT
 10
  5.9600
 20
  4.3186
 30
0.0
 40
  0.0514
 1
5.916mW
 0
TEXT
 8
PARTS
 10
  5.8000
 20
  4.5186
 30
0.0
 40
  0.0514
 1
769.2uA
 0
LINE
 8
PARTS
 10
  5.8000
 20
  4.6000
 30
0.0
 11
  5.8000
 21
  4.5000
 31
0.0
 0
LINE
 8
PARTS
 10
  5.8000
 20
  4.2000
 30
0.0
 11
  5.8000
 21
  4.3000
 31
0.0
 0
POLYLINE
 8
PARTS
 66
1
 10
0.0
 20
0.0
 30
0.0
 0
VERTEX
 8
PARTS
 10
  5.8000
 20
  4.3100
 30
0.0
 0
VERTEX
 8
PARTS
 10
  5.7600
 20
  4.3300
 30
0.0
 0
SEQEND
 8
PARTS
 0
POLYLINE
 8
PARTS
 66
1
 10
0.0
 20
0.0
 30
0.0
 0
VERTEX
 8
PARTS
 10
  5.7600
 20
  4.3300
 30
0.0
 0
VERTEX
 8
PARTS
 10
  5.8400
 20
  4.3600
 30
0.0
 0
SEQEND
 8
PARTS
 0
POLYLINE
 8
PARTS
 66
1
 10
0.0
 20
0.0
 30
0.0
 0
VERTEX
 8
PARTS
 10
  5.8400
 20
  4.3600
 30
0.0
 0
VERTEX
 8
PARTS
 10
  5.7600
 20
  4.3900
 30
0.0
 0
SEQEND
 8
PARTS
 0
POLYLINE
 8
PARTS
 66
1
 10
0.0
 20
0.0
 30
0.0
 0
VERTEX
 8
PARTS
 10
  5.7600
 20
  4.3900
 30
0.0
 0
VERTEX
 8
PARTS
 10
  5.8400
 20
  4.4200
 30
0.0
 0
SEQEND
 8
PARTS
 0
POLYLINE
 8
PARTS
 66
1
 10
0.0
 20
0.0
 30
0.0
 0
VERTEX
 8
PARTS
 10
  5.8400
 20
  4.4200
 30
0.0
 0
VERTEX
 8
PARTS
 10
  5.7600
 20
  4.4500
 30
0.0
 0
SEQEND
 8
PARTS
 0
POLYLINE
 8
PARTS
 66
1
 10
0.0
 20
0.0
 30
0.0
 0
VERTEX
 8
PARTS
 10
  5.7600
 20
  4.4500
 30
0.0
 0
VERTEX
 8
PARTS
 10
  5.8400
 20
  4.4800
 30
0.0
 0
SEQEND
 8
PARTS
 0
POLYLINE
 8
PARTS
 66
1
 10
0.0
 20
0.0
 30
0.0
 0
VERTEX
 8
PARTS
 10
  5.8400
 20
  4.4800
 30
0.0
 0
VERTEX
 8
PARTS
 10
  5.8000
 20
  4.5000
 30
0.0
 0
SEQEND
 8
PARTS
 0
POLYLINE
 8
PARTS
 66
1
 10
0.0
 20
0.0
 30
0.0
 0
VERTEX
 8
PARTS
 10
  5.8000
 20
  4.3000
 30
0.0
 0
VERTEX
 8
PARTS
 10
  5.8000
 20
  4.3100
 30
0.0
 0
SEQEND
 8
PARTS
 0
TEXT
 8
PARTTEXT
 10
  5.9600
 20
  5.0186
 30
0.0
 40
  0.0514
 1
R3
 0
TEXT
 8
PARTTEXT
 10
  5.9600
 20
  4.8986
 30
0.0
 40
  0.0514
 1
5.6k
 0
TEXT
 8
PARTTEXT
 10
  5.9600
 20
  4.9186
 30
0.0
 40
  0.0514
 1
3.314mW
 0
TEXT
 8
PARTS
 10
  5.8000
 20
  5.1186
 30
0.0
 40
  0.0514
 1
769.3uA
 0
LINE
 8
PARTS
 10
  5.8000
 20
  5.2000
 30
0.0
 11
  5.8000
 21
  5.1000
 31
0.0
 0
LINE
 8
PARTS
 10
  5.8000
 20
  4.8000
 30
0.0
 11
  5.8000
 21
  4.9000
 31
0.0
 0
POLYLINE
 8
PARTS
 66
1
 10
0.0
 20
0.0
 30
0.0
 0
VERTEX
 8
PARTS
 10
  5.8000
 20
  4.9100
 30
0.0
 0
VERTEX
 8
PARTS
 10
  5.7600
 20
  4.9300
 30
0.0
 0
SEQEND
 8
PARTS
 0
POLYLINE
 8
PARTS
 66
1
 10
0.0
 20
0.0
 30
0.0
 0
VERTEX
 8
PARTS
 10
  5.7600
 20
  4.9300
 30
0.0
 0
VERTEX
 8
PARTS
 10
  5.8400
 20
  4.9600
 30
0.0
 0
SEQEND
 8
PARTS
 0
POLYLINE
 8
PARTS
 66
1
 10
0.0
 20
0.0
 30
0.0
 0
VERTEX
 8
PARTS
 10
  5.8400
 20
  4.9600
 30
0.0
 0
VERTEX
 8
PARTS
 10
  5.7600
 20
  4.9900
 30
0.0
 0
SEQEND
 8
PARTS
 0
POLYLINE
 8
PARTS
 66
1
 10
0.0
 20
0.0
 30
0.0
 0
VERTEX
 8
PARTS
 10
  5.7600
 20
  4.9900
 30
0.0
 0
VERTEX
 8
PARTS
 10
  5.8400
 20
  5.0200
 30
0.0
 0
SEQEND
 8
PARTS
 0
POLYLINE
 8
PARTS
 66
1
 10
0.0
 20
0.0
 30
0.0
 0
VERTEX
 8
PARTS
 10
  5.8400
 20
  5.0200
 30
0.0
 0
VERTEX
 8
PARTS
 10
  5.7600
 20
  5.0500
 30
0.0
 0
SEQEND
 8
PARTS
 0
POLYLINE
 8
PARTS
 66
1
 10
0.0
 20
0.0
 30
0.0
 0
VERTEX
 8
PARTS
 10
  5.7600
 20
  5.0500
 30
0.0
 0
VERTEX
 8
PARTS
 10
  5.8400
 20
  5.0800
 30
0.0
 0
SEQEND
 8
PARTS
 0
POLYLINE
 8
PARTS
 66
1
 10
0.0
 20
0.0
 30
0.0
 0
VERTEX
 8
PARTS
 10
  5.8400
 20
  5.0800
 30
0.0
 0
VERTEX
 8
PARTS
 10
  5.8000
 20
  5.1000
 30
0.0
 0
SEQEND
 8
PARTS
 0
POLYLINE
 8
PARTS
 66
1
 10
0.0
 20
0.0
 30
0.0
 0
VERTEX
 8
PARTS
 10
  5.8000
 20
  4.9000
 30
0.0
 0
VERTEX
 8
PARTS
 10
  5.8000
 20
  4.9100
 30
0.0
 0
SEQEND
 8
PARTS
 0
TEXT
 8
PARTTEXT
 10
  3.5500
 20
  5.6186
 30
0.0
 40
  0.0514
 1
R2
 0
TEXT
 8
PARTTEXT
 10
  3.5500
 20
  5.3686
 30
0.0
 40
  0.0514
 1
22k
 0
TEXT
 8
PARTTEXT
 10
  3.5500
 20
  5.5186
 30
0.0
 40
  0.0514
 1
3.208e-18W
 0
TEXT
 8
PARTS
 10
  3.8000
 20
  5.4186
 30
0.0
 40
  0.0514
 1
12.08pA
 0
LINE
 8
PARTS
 10
  3.8000
 20
  5.5000
 30
0.0
 11
  3.7000
 21
  5.5000
 31
0.0
 0
LINE
 8
PARTS
 10
  3.4000
 20
  5.5000
 30
0.0
 11
  3.5000
 21
  5.5000
 31
0.0
 0
POLYLINE
 8
PARTS
 66
1
 10
0.0
 20
0.0
 30
0.0
 0
VERTEX
 8
PARTS
 10
  3.5100
 20
  5.5000
 30
0.0
 0
VERTEX
 8
PARTS
 10
  3.5300
 20
  5.5400
 30
0.0
 0
SEQEND
 8
PARTS
 0
POLYLINE
 8
PARTS
 66
1
 10
0.0
 20
0.0
 30
0.0
 0
VERTEX
 8
PARTS
 10
  3.5300
 20
  5.5400
 30
0.0
 0
VERTEX
 8
PARTS
 10
  3.5600
 20
  5.4600
 30
0.0
 0
SEQEND
 8
PARTS
 0
POLYLINE
 8
PARTS
 66
1
 10
0.0
 20
0.0
 30
0.0
 0
VERTEX
 8
PARTS
 10
  3.5600
 20
  5.4600
 30
0.0
 0
VERTEX
 8
PARTS
 10
  3.5900
 20
  5.5400
 30
0.0
 0
SEQEND
 8
PARTS
 0
POLYLINE
 8
PARTS
 66
1
 10
0.0
 20
0.0
 30
0.0
 0
VERTEX
 8
PARTS
 10
  3.5900
 20
  5.5400
 30
0.0
 0
VERTEX
 8
PARTS
 10
  3.6200
 20
  5.4600
 30
0.0
 0
SEQEND
 8
PARTS
 0
POLYLINE
 8
PARTS
 66
1
 10
0.0
 20
0.0
 30
0.0
 0
VERTEX
 8
PARTS
 10
  3.6200
 20
  5.4600
 30
0.0
 0
VERTEX
 8
PARTS
 10
  3.6500
 20
  5.5400
 30
0.0
 0
SEQEND
 8
PARTS
 0
POLYLINE
 8
PARTS
 66
1
 10
0.0
 20
0.0
 30
0.0
 0
VERTEX
 8
PARTS
 10
  3.6500
 20
  5.5400
 30
0.0
 0
VERTEX
 8
PARTS
 10
  3.6800
 20
  5.4600
 30
0.0
 0
SEQEND
 8
PARTS
 0
POLYLINE
 8
PARTS
 66
1
 10
0.0
 20
0.0
 30
0.0
 0
VERTEX
 8
PARTS
 10
  3.6800
 20
  5.4600
 30
0.0
 0
VERTEX
 8
PARTS
 10
  3.7000
 20
  5.5000
 30
0.0
 0
SEQEND
 8
PARTS
 0
POLYLINE
 8
PARTS
 66
1
 10
0.0
 20
0.0
 30
0.0
 0
VERTEX
 8
PARTS
 10
  3.5000
 20
  5.5000
 30
0.0
 0
VERTEX
 8
PARTS
 10
  3.5100
 20
  5.5000
 30
0.0
 0
SEQEND
 8
PARTS
 0
TEXT
 8
PARTTEXT
 10
  7.3600
 20
  4.4186
 30
0.0
 40
  0.0514
 1
V3
 0
TEXT
 8
PARTTEXT
 10
  7.3600
 20
  4.2986
 30
0.0
 40
  0.0514
 1
-12Vdc
 0
TEXT
 8
PARTTEXT
 10
  7.3600
 20
  4.3186
 30
0.0
 40
  0.0514
 1
-258.6W
 0
TEXT
 8
PARTS
 10
  7.2000
 20
  4.4186
 30
0.0
 40
  0.0514
 1
21.55A
 0
TEXT
 8
PARTS
 10
  6.9100
 20
  4.1186
 30
0.0
 40
  0.0514
 1
<BiasValue Current>
 0
LINE
 8
PARTS
 10
  7.2000
 20
  4.1000
 30
0.0
 11
  7.2000
 21
  4.2000
 31
0.0
 0
POLYLINE
 8
PARTS
 66
1
 10
0.0
 20
0.0
 30
0.0
 0
VERTEX
 8
PARTS
 10
  7.1500
 20
  4.3300
 30
0.0
 0
VERTEX
 8
PARTS
 10
  7.2500
 20
  4.3300
 30
0.0
 0
SEQEND
 8
PARTS
 0
POLYLINE
 8
PARTS
 66
1
 10
0.0
 20
0.0
 30
0.0
 0
VERTEX
 8
PARTS
 10
  7.3000
 20
  4.3000
 30
0.0
 0
VERTEX
 8
PARTS
 10
  7.1000
 20
  4.3000
 30
0.0
 0
SEQEND
 8
PARTS
 0
POLYLINE
 8
PARTS
 66
1
 10
0.0
 20
0.0
 30
0.0
 0
VERTEX
 8
PARTS
 10
  7.1500
 20
  4.2600
 30
0.0
 0
VERTEX
 8
PARTS
 10
  7.2500
 20
  4.2600
 30
0.0
 0
SEQEND
 8
PARTS
 0
POLYLINE
 8
PARTS
 66
1
 10
0.0
 20
0.0
 30
0.0
 0
VERTEX
 8
PARTS
 10
  7.2000
 20
  4.4100
 30
0.0
 0
VERTEX
 8
PARTS
 10
  7.2000
 20
  4.3600
 30
0.0
 0
SEQEND
 8
PARTS
 0
POLYLINE
 8
PARTS
 66
1
 10
0.0
 20
0.0
 30
0.0
 0
VERTEX
 8
PARTS
 10
  7.2000
 20
  4.2000
 30
0.0
 0
VERTEX
 8
PARTS
 10
  7.2000
 20
  4.2600
 30
0.0
 0
SEQEND
 8
PARTS
 0
POLYLINE
 8
PARTS
 66
1
 10
0.0
 20
0.0
 30
0.0
 0
VERTEX
 8
PARTS
 10
  7.1000
 20
  4.3600
 30
0.0
 0
VERTEX
 8
PARTS
 10
  7.3000
 20
  4.3600
 30
0.0
 0
SEQEND
 8
PARTS
 0
POLYLINE
 8
PARTS
 66
1
 10
0.0
 20
0.0
 30
0.0
 0
VERTEX
 8
PARTS
 10
  7.2000
 20
  4.4000
 30
0.0
 0
VERTEX
 8
PARTS
 10
  7.2000
 20
  4.5000
 30
0.0
 0
SEQEND
 8
PARTS
 0
POLYLINE
 8
PARTS
 66
1
 10
0.0
 20
0.0
 30
0.0
 0
VERTEX
 8
PARTS
 10
  7.1300
 20
  4.4200
 30
0.0
 0
VERTEX
 8
PARTS
 10
  7.1300
 20
  4.4000
 30
0.0
 0
SEQEND
 8
PARTS
 0
POLYLINE
 8
PARTS
 66
1
 10
0.0
 20
0.0
 30
0.0
 0
VERTEX
 8
PARTS
 10
  7.1200
 20
  4.4100
 30
0.0
 0
VERTEX
 8
PARTS
 10
  7.1400
 20
  4.4100
 30
0.0
 0
SEQEND
 8
PARTS
 0
POLYLINE
 8
PARTS
 66
1
 10
0.0
 20
0.0
 30
0.0
 0
VERTEX
 8
PARTS
 10
  7.1200
 20
  4.2200
 30
0.0
 0
VERTEX
 8
PARTS
 10
  7.1400
 20
  4.2200
 30
0.0
 0
SEQEND
 8
PARTS
 0
TEXT
 8
PARTTEXT
 10
  2.9500
 20
  5.6186
 30
0.0
 40
  0.0514
 1
R1
 0
TEXT
 8
PARTTEXT
 10
  2.9500
 20
  5.3686
 30
0.0
 40
  0.0514
 1
22k
 0
TEXT
 8
PARTTEXT
 10
  2.9500
 20
  5.5186
 30
0.0
 40
  0.0514
 1
3.208e-18W
 0
TEXT
 8
PARTS
 10
  3.2000
 20
  5.4186
 30
0.0
 40
  0.0514
 1
12.08pA
 0
LINE
 8
PARTS
 10
  3.2000
 20
  5.5000
 30
0.0
 11
  3.1000
 21
  5.5000
 31
0.0
 0
LINE
 8
PARTS
 10
  2.8000
 20
  5.5000
 30
0.0
 11
  2.9000
 21
  5.5000
 31
0.0
 0
POLYLINE
 8
PARTS
 66
1
 10
0.0
 20
0.0
 30
0.0
 0
VERTEX
 8
PARTS
 10
  2.9100
 20
  5.5000
 30
0.0
 0
VERTEX
 8
PARTS
 10
  2.9300
 20
  5.5400
 30
0.0
 0
SEQEND
 8
PARTS
 0
POLYLINE
 8
PARTS
 66
1
 10
0.0
 20
0.0
 30
0.0
 0
VERTEX
 8
PARTS
 10
  2.9300
 20
  5.5400
 30
0.0
 0
VERTEX
 8
PARTS
 10
  2.9600
 20
  5.4600
 30
0.0
 0
SEQEND
 8
PARTS
 0
POLYLINE
 8
PARTS
 66
1
 10
0.0
 20
0.0
 30
0.0
 0
VERTEX
 8
PARTS
 10
  2.9600
 20
  5.4600
 30
0.0
 0
VERTEX
 8
PARTS
 10
  2.9900
 20
  5.5400
 30
0.0
 0
SEQEND
 8
PARTS
 0
POLYLINE
 8
PARTS
 66
1
 10
0.0
 20
0.0
 30
0.0
 0
VERTEX
 8
PARTS
 10
  2.9900
 20
  5.5400
 30
0.0
 0
VERTEX
 8
PARTS
 10
  3.0200
 20
  5.4600
 30
0.0
 0
SEQEND
 8
PARTS
 0
POLYLINE
 8
PARTS
 66
1
 10
0.0
 20
0.0
 30
0.0
 0
VERTEX
 8
PARTS
 10
  3.0200
 20
  5.4600
 30
0.0
 0
VERTEX
 8
PARTS
 10
  3.0500
 20
  5.5400
 30
0.0
 0
SEQEND
 8
PARTS
 0
POLYLINE
 8
PARTS
 66
1
 10
0.0
 20
0.0
 30
0.0
 0
VERTEX
 8
PARTS
 10
  3.0500
 20
  5.5400
 30
0.0
 0
VERTEX
 8
PARTS
 10
  3.0800
 20
  5.4600
 30
0.0
 0
SEQEND
 8
PARTS
 0
POLYLINE
 8
PARTS
 66
1
 10
0.0
 20
0.0
 30
0.0
 0
VERTEX
 8
PARTS
 10
  3.0800
 20
  5.4600
 30
0.0
 0
VERTEX
 8
PARTS
 10
  3.1000
 20
  5.5000
 30
0.0
 0
SEQEND
 8
PARTS
 0
POLYLINE
 8
PARTS
 66
1
 10
0.0
 20
0.0
 30
0.0
 0
VERTEX
 8
PARTS
 10
  2.9000
 20
  5.5000
 30
0.0
 0
VERTEX
 8
PARTS
 10
  2.9100
 20
  5.5000
 30
0.0
 0
SEQEND
 8
PARTS
 0
TEXT
 8
PARTTEXT
 10
  2.6500
 20
  5.3086
 30
0.0
 40
  0.0514
 1
V1
 0
TEXT
 8
PARTTEXT
 10
  2.2900
 20
  5.2186
 30
0.0
 40
  0.0514
 1
1Vac
 0
TEXT
 8
PARTTEXT
 10
  2.3000
 20
  5.0986
 30
0.0
 40
  0.0514
 1
0Vdc
 0
TEXT
 8
PARTTEXT
 10
  2.6500
 20
  5.2086
 30
0.0
 40
  0.0514
 1
0W
 0
TEXT
 8
PARTS
 10
  2.6000
 20
  5.3186
 30
0.0
 40
  0.0514
 1
12.08pA
 0
LINE
 8
PARTS
 10
  2.6000
 20
  5.4000
 30
0.0
 11
  2.6000
 21
  5.3000
 31
0.0
 0
LINE
 8
PARTS
 10
  2.6000
 20
  5.0000
 30
0.0
 11
  2.6000
 21
  5.1000
 31
0.0
 0
POLYLINE
 8
PARTS
 66
1
 10
0.0
 20
0.0
 30
0.0
 0
VERTEX
 8
PARTS
 10
  2.6000
 20
  5.2000
 30
0.0
 42
  1.0000
 0
VERTEX
 8
PARTS
 10
  2.5400
 20
  5.2000
 30
0.0
 0
SEQEND
 8
PARTS
 0
POLYLINE
 8
PARTS
 66
1
 10
0.0
 20
0.0
 30
0.0
 0
VERTEX
 8
PARTS
 10
  2.6000
 20
  5.2000
 30
0.0
 42
 -1.0000
 0
VERTEX
 8
PARTS
 10
  2.6600
 20
  5.2000
 30
0.0
 0
SEQEND
 8
PARTS
 0
POLYLINE
 8
PARTS
 66
1
 70
1
 10
0.0
 20
0.0
 30
0.0
 0
VERTEX
 8
PARTS
 10
  2.7000
 20
  5.2000
 30
0.0
 42
  0.0985
 0
VERTEX
 8
PARTS
 10
  2.6924
 20
  5.2383
 30
0.0
 42
  0.0985
 0
VERTEX
 8
PARTS
 10
  2.6707
 20
  5.2707
 30
0.0
 42
  0.0985
 0
VERTEX
 8
PARTS
 10
  2.6383
 20
  5.2924
 30
0.0
 42
  0.0985
 0
VERTEX
 8
PARTS
 10
  2.6000
 20
  5.3000
 30
0.0
 42
  0.0985
 0
VERTEX
 8
PARTS
 10
  2.5617
 20
  5.2924
 30
0.0
 42
  0.0985
 0
VERTEX
 8
PARTS
 10
  2.5293
 20
  5.2707
 30
0.0
 42
  0.0985
 0
VERTEX
 8
PARTS
 10
  2.5076
 20
  5.2383
 30
0.0
 42
  0.0985
 0
VERTEX
 8
PARTS
 10
  2.5000
 20
  5.2000
 30
0.0
 42
  0.0985
 0
VERTEX
 8
PARTS
 10
  2.5076
 20
  5.1617
 30
0.0
 42
  0.0985
 0
VERTEX
 8
PARTS
 10
  2.5293
 20
  5.1293
 30
0.0
 42
  0.0985
 0
VERTEX
 8
PARTS
 10
  2.5617
 20
  5.1076
 30
0.0
 42
  0.0985
 0
VERTEX
 8
PARTS
 10
  2.6000
 20
  5.1000
 30
0.0
 42
  0.0985
 0
VERTEX
 8
PARTS
 10
  2.6383
 20
  5.1076
 30
0.0
 42
  0.0985
 0
VERTEX
 8
PARTS
 10
  2.6707
 20
  5.1293
 30
0.0
 42
  0.0985
 0
VERTEX
 8
PARTS
 10
  2.6924
 20
  5.1617
 30
0.0
 42
  0.0985
 0
SEQEND
 8
PARTS
 0
POLYLINE
 8
PARTS
 66
1
 10
0.0
 20
0.0
 30
0.0
 0
VERTEX
 8
PARTS
 10
  2.5900
 20
  5.1300
 30
0.0
 0
VERTEX
 8
PARTS
 10
  2.6100
 20
  5.1300
 30
0.0
 0
SEQEND
 8
PARTS
 0
POLYLINE
 8
PARTS
 66
1
 10
0.0
 20
0.0
 30
0.0
 0
VERTEX
 8
PARTS
 10
  2.6000
 20
  5.2900
 30
0.0
 0
VERTEX
 8
PARTS
 10
  2.6000
 20
  5.2700
 30
0.0
 0
SEQEND
 8
PARTS
 0
POLYLINE
 8
PARTS
 66
1
 10
0.0
 20
0.0
 30
0.0
 0
VERTEX
 8
PARTS
 10
  2.5900
 20
  5.2800
 30
0.0
 0
VERTEX
 8
PARTS
 10
  2.6100
 20
  5.2800
 30
0.0
 0
SEQEND
 8
PARTS
 0
TEXT
 8
PARTTEXT
 10
  4.7400
 20
  5.6186
 30
0.0
 40
  0.0514
 1
U1
 0
TEXT
 8
PARTTEXT
 10
  4.4400
 20
  4.9186
 30
0.0
 40
  0.0514
 1
LM741
 0
TEXT
 8
PARTTEXT
 10
  4.7400
 20
  5.5186
 30
0.0
 40
  0.0514
 1
487.3mW
 0
TEXT
 8
PARTS
 10
  4.6000
 20
  5.4186
 30
0.0
 40
  0.0514
 1
-12.08pA
 0
LINE
 8
PARTS
 10
  4.6000
 20
  5.5000
 30
0.0
 11
  4.7000
 21
  5.5000
 31
0.0
 0
TEXT
 8
PARTS
 10
  4.7900
 20
  5.4750
 30
0.0
 40
  0.0500
 1
+
 0
TEXT
 8
PARTS
 10
  4.6000
 20
  5.5300
 30
0.0
 40
  0.0500
 1
3
 0
TEXT
 8
PARTS
 10
  4.6000
 20
  5.0186
 30
0.0
 40
  0.0514
 1
156.0nA
 0
LINE
 8
PARTS
 10
  4.6000
 20
  5.1000
 30
0.0
 11
  4.7000
 21
  5.1000
 31
0.0
 0
TEXT
 8
PARTS
 10
  4.7900
 20
  5.0750
 30
0.0
 40
  0.0500
 1
-
 0
TEXT
 8
PARTS
 10
  4.6000
 20
  5.1300
 30
0.0
 40
  0.0500
 1
2
 0
TEXT
 8
PARTS
 10
  5.0000
 20
  5.5186
 30
0.0
 40
  0.0514
 1
-21.51A
 0
TEXT
 8
PARTS
 10
  5.0250
 20
  5.4300
 30
0.0
 40
  0.0500
 50
 90.0000
 1
V+
 0
TEXT
 8
PARTS
 10
  4.9700
 20
  5.6600
 30
0.0
 40
  0.0500
 50
 90.0000
 1
7
 0
TEXT
 8
PARTS
 10
  5.0000
 20
  4.9186
 30
0.0
 40
  0.0514
 1
21.55A
 0
TEXT
 8
PARTS
 10
  5.0250
 20
  5.0900
 30
0.0
 40
  0.0500
 50
 90.0000
 1
V-
 0
TEXT
 8
PARTS
 10
  4.9700
 20
  4.8800
 30
0.0
 40
  0.0500
 50
 90.0000
 1
4
 0
TEXT
 8
PARTS
 10
  5.4000
 20
  5.2186
 30
0.0
 40
  0.0514
 1
-769.2uA
 0
LINE
 8
PARTS
 10
  5.4000
 20
  5.3000
 30
0.0
 11
  5.3000
 21
  5.3000
 31
0.0
 0
TEXT
 8
PARTS
 10
  5.0900
 20
  5.2750
 30
0.0
 40
  0.0500
 1
OUT
 0
TEXT
 8
PARTS
 10
  5.3600
 20
  5.3300
 30
0.0
 40
  0.0500
 1
6
 0
LINE
 8
PARTS
 10
  5.4000
 20
  5.1000
 30
0.0
 11
  5.3000
 21
  5.1000
 31
0.0
 0
TEXT
 8
PARTS
 10
  5.0900
 20
  5.0750
 30
0.0
 40
  0.0500
 1
OS1
 0
TEXT
 8
PARTS
 10
  5.3600
 20
  5.1300
 30
0.0
 40
  0.0500
 1
1
 0
LINE
 8
PARTS
 10
  5.4000
 20
  5.5000
 30
0.0
 11
  5.3000
 21
  5.5000
 31
0.0
 0
TEXT
 8
PARTS
 10
  5.0900
 20
  5.4750
 30
0.0
 40
  0.0500
 1
OS2
 0
TEXT
 8
PARTS
 10
  5.3600
 20
  5.5300
 30
0.0
 40
  0.0500
 1
5
 0
POLYLINE
 8
PARTS
 66
1
 10
0.0
 20
0.0
 30
0.0
 0
VERTEX
 8
PARTS
 10
  5.0000
 20
  5.1000
 30
0.0
 0
VERTEX
 8
PARTS
 10
  5.0000
 20
  5.1500
 30
0.0
 0
SEQEND
 8
PARTS
 0
POLYLINE
 8
PARTS
 66
1
 10
0.0
 20
0.0
 30
0.0
 0
VERTEX
 8
PARTS
 10
  4.7000
 20
  5.0000
 30
0.0
 0
VERTEX
 8
PARTS
 10
  5.3000
 20
  5.3000
 30
0.0
 0
SEQEND
 8
PARTS
 0
POLYLINE
 8
PARTS
 66
1
 10
0.0
 20
0.0
 30
0.0
 0
VERTEX
 8
PARTS
 10
  5.3000
 20
  5.3000
 30
0.0
 0
VERTEX
 8
PARTS
 10
  4.7000
 20
  5.6000
 30
0.0
 0
SEQEND
 8
PARTS
 0
POLYLINE
 8
PARTS
 66
1
 10
0.0
 20
0.0
 30
0.0
 0
VERTEX
 8
PARTS
 10
  5.0000
 20
  5.5000
 30
0.0
 0
VERTEX
 8
PARTS
 10
  5.0000
 20
  5.4500
 30
0.0
 0
SEQEND
 8
PARTS
 0
POLYLINE
 8
PARTS
 66
1
 10
0.0
 20
0.0
 30
0.0
 0
VERTEX
 8
PARTS
 10
  4.7000
 20
  5.6000
 30
0.0
 0
VERTEX
 8
PARTS
 10
  4.7000
 20
  5.0000
 30
0.0
 0
SEQEND
 8
PARTS
 0
POLYLINE
 8
PARTS
 66
1
 10
0.0
 20
0.0
 30
0.0
 0
VERTEX
 8
PARTS
 10
  5.2000
 20
  5.5000
 30
0.0
 0
VERTEX
 8
PARTS
 10
  5.1000
 20
  5.4000
 30
0.0
 0
SEQEND
 8
PARTS
 0
POLYLINE
 8
PARTS
 66
1
 10
0.0
 20
0.0
 30
0.0
 0
VERTEX
 8
PARTS
 10
  5.1000
 20
  5.2000
 30
0.0
 0
VERTEX
 8
PARTS
 10
  5.2000
 20
  5.1000
 30
0.0
 0
SEQEND
 8
PARTS
 0
POLYLINE
 8
PARTS
 66
1
 10
0.0
 20
0.0
 30
0.0
 0
VERTEX
 8
PARTS
 10
  5.2000
 20
  5.5000
 30
0.0
 0
VERTEX
 8
PARTS
 10
  5.3000
 20
  5.5000
 30
0.0
 0
SEQEND
 8
PARTS
 0
POLYLINE
 8
PARTS
 66
1
 10
0.0
 20
0.0
 30
0.0
 0
VERTEX
 8
PARTS
 10
  5.2000
 20
  5.1000
 30
0.0
 0
VERTEX
 8
PARTS
 10
  5.3000
 20
  5.1000
 30
0.0
 0
SEQEND
 8
PARTS
 0
POLYLINE
 8
PARTS
 66
1
 10
0.0
 20
0.0
 30
0.0
 0
VERTEX
 8
PARTS
 10
  5.0000
 20
  5.5000
 30
0.0
 0
VERTEX
 8
PARTS
 10
  5.0000
 20
  5.6000
 30
0.0
 0
SEQEND
 8
PARTS
 0
POLYLINE
 8
PARTS
 66
1
 10
0.0
 20
0.0
 30
0.0
 0
VERTEX
 8
PARTS
 10
  5.0000
 20
  5.1000
 30
0.0
 0
VERTEX
 8
PARTS
 10
  5.0000
 20
  5.0000
 30
0.0
 0
SEQEND
 8
PARTS
 0
TEXT
 8
PARTTEXT
 10
  4.6500
 20
  6.1186
 30
0.0
 40
  0.0514
 1
C2
 0
TEXT
 8
PARTTEXT
 10
  4.6500
 20
  5.8686
 30
0.0
 40
  0.0514
 1
1.4n
 0
LINE
 8
PARTS
 10
  4.5000
 20
  6.0000
 30
0.0
 11
  4.6000
 21
  6.0000
 31
0.0
 0
LINE
 8
PARTS
 10
  4.8000
 20
  6.0000
 30
0.0
 11
  4.7000
 21
  6.0000
 31
0.0
 0
POLYLINE
 8
PARTS
 66
1
 10
0.0
 20
0.0
 30
0.0
 0
VERTEX
 8
PARTS
 10
  4.6300
 20
  6.0500
 30
0.0
 0
VERTEX
 8
PARTS
 10
  4.6300
 20
  5.9500
 30
0.0
 0
SEQEND
 8
PARTS
 0
POLYLINE
 8
PARTS
 66
1
 10
0.0
 20
0.0
 30
0.0
 0
VERTEX
 8
PARTS
 10
  4.6700
 20
  6.0500
 30
0.0
 0
VERTEX
 8
PARTS
 10
  4.6700
 20
  5.9500
 30
0.0
 0
SEQEND
 8
PARTS
 0
POLYLINE
 8
PARTS
 66
1
 10
0.0
 20
0.0
 30
0.0
 0
VERTEX
 8
PARTS
 10
  4.6700
 20
  6.0000
 30
0.0
 0
VERTEX
 8
PARTS
 10
  4.7000
 20
  6.0000
 30
0.0
 0
SEQEND
 8
PARTS
 0
POLYLINE
 8
PARTS
 66
1
 10
0.0
 20
0.0
 30
0.0
 0
VERTEX
 8
PARTS
 10
  4.6000
 20
  6.0000
 30
0.0
 0
VERTEX
 8
PARTS
 10
  4.6300
 20
  6.0000
 30
0.0
 0
SEQEND
 8
PARTS
 0
TEXT
 8
PARTTEXT
 10
  4.0600
 20
  5.2186
 30
0.0
 40
  0.0514
 1
C1
 0
TEXT
 8
PARTTEXT
 10
  4.0600
 20
  5.0986
 30
0.0
 40
  0.0514
 1
1.4n
 0
LINE
 8
PARTS
 10
  3.9000
 20
  5.1000
 30
0.0
 11
  3.9000
 21
  5.2000
 31
0.0
 0
LINE
 8
PARTS
 10
  3.9000
 20
  5.4000
 30
0.0
 11
  3.9000
 21
  5.3000
 31
0.0
 0
POLYLINE
 8
PARTS
 66
1
 10
0.0
 20
0.0
 30
0.0
 0
VERTEX
 8
PARTS
 10
  3.8500
 20
  5.2300
 30
0.0
 0
VERTEX
 8
PARTS
 10
  3.9500
 20
  5.2300
 30
0.0
 0
SEQEND
 8
PARTS
 0
POLYLINE
 8
PARTS
 66
1
 10
0.0
 20
0.0
 30
0.0
 0
VERTEX
 8
PARTS
 10
  3.8500
 20
  5.2700
 30
0.0
 0
VERTEX
 8
PARTS
 10
  3.9500
 20
  5.2700
 30
0.0
 0
SEQEND
 8
PARTS
 0
POLYLINE
 8
PARTS
 66
1
 10
0.0
 20
0.0
 30
0.0
 0
VERTEX
 8
PARTS
 10
  3.9000
 20
  5.2700
 30
0.0
 0
VERTEX
 8
PARTS
 10
  3.9000
 20
  5.3000
 30
0.0
 0
SEQEND
 8
PARTS
 0
POLYLINE
 8
PARTS
 66
1
 10
0.0
 20
0.0
 30
0.0
 0
VERTEX
 8
PARTS
 10
  3.9000
 20
  5.2000
 30
0.0
 0
VERTEX
 8
PARTS
 10
  3.9000
 20
  5.2300
 30
0.0
 0
SEQEND
 8
PARTS
 0
POLYLINE
 8
WIRE
 66
1
 10
0.0
 20
0.0
 30
0.0
 0
VERTEX
 8
WIRE
 10
  2.6000
 20
  5.4000
 30
0.0
 0
VERTEX
 8
WIRE
 10
  2.6000
 20
  5.5000
 30
0.0
 0
SEQEND
 8
WIRE
 0
POLYLINE
 8
WIRE
 66
1
 10
0.0
 20
0.0
 30
0.0
 0
VERTEX
 8
WIRE
 10
  2.6000
 20
  5.5000
 30
0.0
 0
VERTEX
 8
WIRE
 10
  2.8000
 20
  5.5000
 30
0.0
 0
SEQEND
 8
WIRE
 0
TEXT
 8
WIRETEXT
 10
  2.7000
 20
  5.4186
 30
0.0
 40
  0.0514
 1
0V
 0
POLYLINE
 8
WIRE
 66
1
 10
0.0
 20
0.0
 30
0.0
 0
VERTEX
 8
WIRE
 10
  3.2000
 20
  5.5000
 30
0.0
 0
VERTEX
 8
WIRE
 10
  3.3000
 20
  5.5000
 30
0.0
 0
SEQEND
 8
WIRE
 0
POLYLINE
 8
WIRE
 66
1
 10
0.0
 20
0.0
 30
0.0
 0
VERTEX
 8
WIRE
 10
  3.8000
 20
  5.5000
 30
0.0
 0
VERTEX
 8
WIRE
 10
  3.9000
 20
  5.5000
 30
0.0
 0
SEQEND
 8
WIRE
 0
POLYLINE
 8
WIRE
 66
1
 10
0.0
 20
0.0
 30
0.0
 0
VERTEX
 8
WIRE
 10
  3.9000
 20
  5.5000
 30
0.0
 0
VERTEX
 8
WIRE
 10
  3.9000
 20
  5.4000
 30
0.0
 0
SEQEND
 8
WIRE
 0
POLYLINE
 8
WIRE
 66
1
 70
1
 10
0.0
 20
0.0
 30
0.0
 40
  0.0200
 41
  0.0200
 0
VERTEX
 8
WIRE
 10
  3.8900
 20
  5.5000
 30
0.0
 42
1.0
 0
VERTEX
 8
WIRE
 10
  3.9100
 20
  5.5000
 30
0.0
 42
1.0
 0
SEQEND
 8
WIRE
 0
POLYLINE
 8
WIRE
 66
1
 10
0.0
 20
0.0
 30
0.0
 0
VERTEX
 8
WIRE
 10
  5.4000
 20
  5.3000
 30
0.0
 0
VERTEX
 8
WIRE
 10
  5.8000
 20
  5.3000
 30
0.0
 0
SEQEND
 8
WIRE
 0
POLYLINE
 8
WIRE
 66
1
 10
0.0
 20
0.0
 30
0.0
 0
VERTEX
 8
WIRE
 10
  5.8000
 20
  5.3000
 30
0.0
 0
VERTEX
 8
WIRE
 10
  5.8000
 20
  5.2000
 30
0.0
 0
SEQEND
 8
WIRE
 0
POLYLINE
 8
WIRE
 66
1
 10
0.0
 20
0.0
 30
0.0
 0
VERTEX
 8
WIRE
 10
  5.8000
 20
  4.8000
 30
0.0
 0
VERTEX
 8
WIRE
 10
  5.8000
 20
  4.7000
 30
0.0
 0
SEQEND
 8
WIRE
 0
POLYLINE
 8
WIRE
 66
1
 10
0.0
 20
0.0
 30
0.0
 0
VERTEX
 8
WIRE
 10
  4.6000
 20
  5.1000
 30
0.0
 0
VERTEX
 8
WIRE
 10
  4.4000
 20
  5.1000
 30
0.0
 0
SEQEND
 8
WIRE
 0
POLYLINE
 8
WIRE
 66
1
 10
0.0
 20
0.0
 30
0.0
 0
VERTEX
 8
WIRE
 10
  4.4000
 20
  5.1000
 30
0.0
 0
VERTEX
 8
WIRE
 10
  4.4000
 20
  4.7000
 30
0.0
 0
SEQEND
 8
WIRE
 0
POLYLINE
 8
WIRE
 66
1
 10
0.0
 20
0.0
 30
0.0
 0
VERTEX
 8
WIRE
 10
  4.4000
 20
  4.7000
 30
0.0
 0
VERTEX
 8
WIRE
 10
  5.8000
 20
  4.7000
 30
0.0
 0
SEQEND
 8
WIRE
 0
TEXT
 8
WIRETEXT
 10
  5.1000
 20
  4.6186
 30
0.0
 40
  0.0514
 1
7.692V
 0
POLYLINE
 8
WIRE
 66
1
 70
1
 10
0.0
 20
0.0
 30
0.0
 40
  0.0200
 41
  0.0200
 0
VERTEX
 8
WIRE
 10
  5.7900
 20
  4.7000
 30
0.0
 42
1.0
 0
VERTEX
 8
WIRE
 10
  5.8100
 20
  4.7000
 30
0.0
 42
1.0
 0
SEQEND
 8
WIRE
 0
POLYLINE
 8
WIRE
 66
1
 10
0.0
 20
0.0
 30
0.0
 0
VERTEX
 8
WIRE
 10
  5.8000
 20
  4.7000
 30
0.0
 0
VERTEX
 8
WIRE
 10
  5.8000
 20
  4.6000
 30
0.0
 0
SEQEND
 8
WIRE
 0
POLYLINE
 8
WIRE
 66
1
 10
0.0
 20
0.0
 30
0.0
 0
VERTEX
 8
WIRE
 10
  5.8000
 20
  6.0000
 30
0.0
 0
VERTEX
 8
WIRE
 10
  4.8000
 20
  6.0000
 30
0.0
 0
SEQEND
 8
WIRE
 0
TEXT
 8
WIRETEXT
 10
  5.3000
 20
  5.9186
 30
0.0
 40
  0.0514
 1
12.00V
 0
POLYLINE
 8
WIRE
 66
1
 10
0.0
 20
0.0
 30
0.0
 0
VERTEX
 8
WIRE
 10
  5.8000
 20
  6.0000
 30
0.0
 0
VERTEX
 8
WIRE
 10
  5.8000
 20
  5.3000
 30
0.0
 0
SEQEND
 8
WIRE
 0
POLYLINE
 8
WIRE
 66
1
 70
1
 10
0.0
 20
0.0
 30
0.0
 40
  0.0200
 41
  0.0200
 0
VERTEX
 8
WIRE
 10
  5.7900
 20
  5.3000
 30
0.0
 42
1.0
 0
VERTEX
 8
WIRE
 10
  5.8100
 20
  5.3000
 30
0.0
 42
1.0
 0
SEQEND
 8
WIRE
 0
POLYLINE
 8
WIRE
 66
1
 10
0.0
 20
0.0
 30
0.0
 0
VERTEX
 8
WIRE
 10
  4.5000
 20
  6.0000
 30
0.0
 0
VERTEX
 8
WIRE
 10
  3.3000
 20
  6.0000
 30
0.0
 0
SEQEND
 8
WIRE
 0
TEXT
 8
WIRETEXT
 10
  3.9000
 20
  5.9186
 30
0.0
 40
  0.0514
 1
265.7nV
 0
POLYLINE
 8
WIRE
 66
1
 10
0.0
 20
0.0
 30
0.0
 0
VERTEX
 8
WIRE
 10
  3.3000
 20
  6.0000
 30
0.0
 0
VERTEX
 8
WIRE
 10
  3.3000
 20
  5.5000
 30
0.0
 0
SEQEND
 8
WIRE
 0
POLYLINE
 8
WIRE
 66
1
 70
1
 10
0.0
 20
0.0
 30
0.0
 40
  0.0200
 41
  0.0200
 0
VERTEX
 8
WIRE
 10
  3.2900
 20
  5.5000
 30
0.0
 42
1.0
 0
VERTEX
 8
WIRE
 10
  3.3100
 20
  5.5000
 30
0.0
 42
1.0
 0
SEQEND
 8
WIRE
 0
POLYLINE
 8
WIRE
 66
1
 10
0.0
 20
0.0
 30
0.0
 0
VERTEX
 8
WIRE
 10
  3.3000
 20
  5.5000
 30
0.0
 0
VERTEX
 8
WIRE
 10
  3.4000
 20
  5.5000
 30
0.0
 0
SEQEND
 8
WIRE
 0
POLYLINE
 8
WIRE
 66
1
 10
0.0
 20
0.0
 30
0.0
 0
VERTEX
 8
WIRE
 10
  3.9000
 20
  5.5000
 30
0.0
 0
VERTEX
 8
WIRE
 10
  4.6000
 20
  5.5000
 30
0.0
 0
SEQEND
 8
WIRE
 0
TEXT
 8
WIRETEXT
 10
  4.2500
 20
  5.4186
 30
0.0
 40
  0.0514
 1
531.3nV
 0
POLYLINE
 8
WIRE
 66
1
 10
0.0
 20
0.0
 30
0.0
 0
VERTEX
 8
WIRE
 10
  7.2000
 20
  4.9000
 30
0.0
 0
VERTEX
 8
WIRE
 10
  7.2000
 20
  4.7000
 30
0.0
 0
SEQEND
 8
WIRE
 0
POLYLINE
 8
WIRE
 66
1
 10
0.0
 20
0.0
 30
0.0
 0
VERTEX
 8
WIRE
 10
  7.6000
 20
  4.7000
 30
0.0
 0
VERTEX
 8
WIRE
 10
  7.2000
 20
  4.7000
 30
0.0
 0
SEQEND
 8
WIRE
 0
TEXT
 8
WIRETEXT
 10
  7.4000
 20
  4.6186
 30
0.0
 40
  0.0514
 1
0V
 0
POLYLINE
 8
WIRE
 66
1
 70
1
 10
0.0
 20
0.0
 30
0.0
 40
  0.0200
 41
  0.0200
 0
VERTEX
 8
WIRE
 10
  7.1900
 20
  4.7000
 30
0.0
 42
1.0
 0
VERTEX
 8
WIRE
 10
  7.2100
 20
  4.7000
 30
0.0
 42
1.0
 0
SEQEND
 8
WIRE
 0
POLYLINE
 8
WIRE
 66
1
 10
0.0
 20
0.0
 30
0.0
 0
VERTEX
 8
WIRE
 10
  7.2000
 20
  5.3000
 30
0.0
 0
VERTEX
 8
WIRE
 10
  7.2000
 20
  6.1000
 30
0.0
 0
SEQEND
 8
WIRE
 0
POLYLINE
 8
WIRE
 66
1
 10
0.0
 20
0.0
 30
0.0
 0
VERTEX
 8
WIRE
 10
  7.2000
 20
  3.7000
 30
0.0
 0
VERTEX
 8
WIRE
 10
  5.0000
 20
  3.7000
 30
0.0
 0
SEQEND
 8
WIRE
 0
TEXT
 8
WIRETEXT
 10
  6.1000
 20
  3.6186
 30
0.0
 40
  0.0514
 1
12.00V
 0
POLYLINE
 8
WIRE
 66
1
 10
0.0
 20
0.0
 30
0.0
 0
VERTEX
 8
WIRE
 10
  5.0000
 20
  3.7000
 30
0.0
 0
VERTEX
 8
WIRE
 10
  5.0000
 20
  5.0000
 30
0.0
 0
SEQEND
 8
WIRE
 0
POLYLINE
 8
WIRE
 66
1
 10
0.0
 20
0.0
 30
0.0
 0
VERTEX
 8
WIRE
 10
  5.8000
 20
  4.2000
 30
0.0
 0
VERTEX
 8
WIRE
 10
  5.8000
 20
  4.1000
 30
0.0
 0
SEQEND
 8
WIRE
 0
TEXT
 8
WIRETEXT
 10
  5.8000
 20
  4.0686
 30
0.0
 40
  0.0514
 1
0V
 0
POLYLINE
 8
WIRE
 66
1
 10
0.0
 20
0.0
 30
0.0
 0
VERTEX
 8
WIRE
 10
  3.9000
 20
  5.1000
 30
0.0
 0
VERTEX
 8
WIRE
 10
  3.9000
 20
  4.9000
 30
0.0
 0
SEQEND
 8
WIRE
 0
TEXT
 8
WIRETEXT
 10
  3.9000
 20
  4.9186
 30
0.0
 40
  0.0514
 1
0V
 0
POLYLINE
 8
WIRE
 66
1
 10
0.0
 20
0.0
 30
0.0
 0
VERTEX
 8
WIRE
 10
  2.6000
 20
  5.0000
 30
0.0
 0
VERTEX
 8
WIRE
 10
  2.6000
 20
  4.8000
 30
0.0
 0
SEQEND
 8
WIRE
 0
TEXT
 8
WIRETEXT
 10
  2.6000
 20
  4.8186
 30
0.0
 40
  0.0514
 1
0V
 0
POLYLINE
 8
WIRE
 66
1
 10
0.0
 20
0.0
 30
0.0
 0
VERTEX
 8
WIRE
 10
  5.0000
 20
  6.1000
 30
0.0
 0
VERTEX
 8
WIRE
 10
  5.0000
 20
  5.6000
 30
0.0
 0
SEQEND
 8
WIRE
 0
POLYLINE
 8
WIRE
 66
1
 10
0.0
 20
0.0
 30
0.0
 0
VERTEX
 8
WIRE
 10
  7.2000
 20
  6.1000
 30
0.0
 0
VERTEX
 8
WIRE
 10
  5.0000
 20
  6.1000
 30
0.0
 0
SEQEND
 8
WIRE
 0
TEXT
 8
WIRETEXT
 10
  6.1000
 20
  6.0186
 30
0.0
 40
  0.0514
 1
12.00V
 0
POLYLINE
 8
WIRE
 66
1
 10
0.0
 20
0.0
 30
0.0
 0
VERTEX
 8
WIRE
 10
  7.2000
 20
  4.5000
 30
0.0
 0
VERTEX
 8
WIRE
 10
  7.2000
 20
  4.7000
 30
0.0
 0
SEQEND
 8
WIRE
 0
POLYLINE
 8
WIRE
 66
1
 10
0.0
 20
0.0
 30
0.0
 0
VERTEX
 8
WIRE
 10
  7.2000
 20
  4.1000
 30
0.0
 0
VERTEX
 8
WIRE
 10
  7.2000
 20
  3.7000
 30
0.0
 0
SEQEND
 8
WIRE
 0
TEXT
 8
PARTTEXT
 10
  5.8600
 20
  3.9572
 30
0.0
 40
  0.0628
 1
0
 0
POLYLINE
 8
PARTS
 66
1
 10
0.0
 20
0.0
 30
0.0
 0
VERTEX
 8
PARTS
 10
  5.7000
 20
  4.1000
 30
0.0
 0
VERTEX
 8
PARTS
 10
  5.9000
 20
  4.1000
 30
0.0
 0
SEQEND
 8
PARTS
 0
POLYLINE
 8
PARTS
 66
1
 10
0.0
 20
0.0
 30
0.0
 0
VERTEX
 8
PARTS
 10
  5.7300
 20
  4.0700
 30
0.0
 0
VERTEX
 8
PARTS
 10
  5.8700
 20
  4.0700
 30
0.0
 0
SEQEND
 8
PARTS
 0
POLYLINE
 8
PARTS
 66
1
 10
0.0
 20
0.0
 30
0.0
 0
VERTEX
 8
PARTS
 10
  5.8400
 20
  4.0400
 30
0.0
 0
VERTEX
 8
PARTS
 10
  5.7600
 20
  4.0400
 30
0.0
 0
SEQEND
 8
PARTS
 0
POLYLINE
 8
PARTS
 66
1
 10
0.0
 20
0.0
 30
0.0
 0
VERTEX
 8
PARTS
 10
  5.7900
 20
  4.0100
 30
0.0
 0
VERTEX
 8
PARTS
 10
  5.8100
 20
  4.0100
 30
0.0
 0
SEQEND
 8
PARTS
 0
TEXT
 8
PARTTEXT
 10
  3.9600
 20
  4.7572
 30
0.0
 40
  0.0628
 1
0
 0
POLYLINE
 8
PARTS
 66
1
 10
0.0
 20
0.0
 30
0.0
 0
VERTEX
 8
PARTS
 10
  3.8000
 20
  4.9000
 30
0.0
 0
VERTEX
 8
PARTS
 10
  4.0000
 20
  4.9000
 30
0.0
 0
SEQEND
 8
PARTS
 0
POLYLINE
 8
PARTS
 66
1
 10
0.0
 20
0.0
 30
0.0
 0
VERTEX
 8
PARTS
 10
  3.8300
 20
  4.8700
 30
0.0
 0
VERTEX
 8
PARTS
 10
  3.9700
 20
  4.8700
 30
0.0
 0
SEQEND
 8
PARTS
 0
POLYLINE
 8
PARTS
 66
1
 10
0.0
 20
0.0
 30
0.0
 0
VERTEX
 8
PARTS
 10
  3.9400
 20
  4.8400
 30
0.0
 0
VERTEX
 8
PARTS
 10
  3.8600
 20
  4.8400
 30
0.0
 0
SEQEND
 8
PARTS
 0
POLYLINE
 8
PARTS
 66
1
 10
0.0
 20
0.0
 30
0.0
 0
VERTEX
 8
PARTS
 10
  3.8900
 20
  4.8100
 30
0.0
 0
VERTEX
 8
PARTS
 10
  3.9100
 20
  4.8100
 30
0.0
 0
SEQEND
 8
PARTS
 0
TEXT
 8
PARTTEXT
 10
  2.6600
 20
  4.6572
 30
0.0
 40
  0.0628
 1
0
 0
POLYLINE
 8
PARTS
 66
1
 10
0.0
 20
0.0
 30
0.0
 0
VERTEX
 8
PARTS
 10
  2.5000
 20
  4.8000
 30
0.0
 0
VERTEX
 8
PARTS
 10
  2.7000
 20
  4.8000
 30
0.0
 0
SEQEND
 8
PARTS
 0
POLYLINE
 8
PARTS
 66
1
 10
0.0
 20
0.0
 30
0.0
 0
VERTEX
 8
PARTS
 10
  2.5300
 20
  4.7700
 30
0.0
 0
VERTEX
 8
PARTS
 10
  2.6700
 20
  4.7700
 30
0.0
 0
SEQEND
 8
PARTS
 0
POLYLINE
 8
PARTS
 66
1
 10
0.0
 20
0.0
 30
0.0
 0
VERTEX
 8
PARTS
 10
  2.6400
 20
  4.7400
 30
0.0
 0
VERTEX
 8
PARTS
 10
  2.5600
 20
  4.7400
 30
0.0
 0
SEQEND
 8
PARTS
 0
POLYLINE
 8
PARTS
 66
1
 10
0.0
 20
0.0
 30
0.0
 0
VERTEX
 8
PARTS
 10
  2.5900
 20
  4.7100
 30
0.0
 0
VERTEX
 8
PARTS
 10
  2.6100
 20
  4.7100
 30
0.0
 0
SEQEND
 8
PARTS
 0
TEXT
 8
PARTTEXT
 10
  7.6600
 20
  4.5572
 30
0.0
 40
  0.0628
 1
0
 0
POLYLINE
 8
PARTS
 66
1
 10
0.0
 20
0.0
 30
0.0
 0
VERTEX
 8
PARTS
 10
  7.5000
 20
  4.7000
 30
0.0
 0
VERTEX
 8
PARTS
 10
  7.7000
 20
  4.7000
 30
0.0
 0
SEQEND
 8
PARTS
 0
POLYLINE
 8
PARTS
 66
1
 10
0.0
 20
0.0
 30
0.0
 0
VERTEX
 8
PARTS
 10
  7.5300
 20
  4.6700
 30
0.0
 0
VERTEX
 8
PARTS
 10
  7.6700
 20
  4.6700
 30
0.0
 0
SEQEND
 8
PARTS
 0
POLYLINE
 8
PARTS
 66
1
 10
0.0
 20
0.0
 30
0.0
 0
VERTEX
 8
PARTS
 10
  7.6400
 20
  4.6400
 30
0.0
 0
VERTEX
 8
PARTS
 10
  7.5600
 20
  4.6400
 30
0.0
 0
SEQEND
 8
PARTS
 0
POLYLINE
 8
PARTS
 66
1
 10
0.0
 20
0.0
 30
0.0
 0
VERTEX
 8
PARTS
 10
  7.5900
 20
  4.6100
 30
0.0
 0
VERTEX
 8
PARTS
 10
  7.6100
 20
  4.6100
 30
0.0
 0
SEQEND
 8
PARTS
 0
ENDSEC
 0
EOF
