<?xml version="1.0" encoding="UTF-8" standalone="no"?>
<!-- Created with Inkscape (http://www.inkscape.org/) -->

<svg
   xmlns:dc="http://purl.org/dc/elements/1.1/"
   xmlns:cc="http://creativecommons.org/ns#"
   xmlns:rdf="http://www.w3.org/1999/02/22-rdf-syntax-ns#"
   xmlns:svg="http://www.w3.org/2000/svg"
   xmlns="http://www.w3.org/2000/svg"
   xmlns:sodipodi="http://sodipodi.sourceforge.net/DTD/sodipodi-0.dtd"
   xmlns:inkscape="http://www.inkscape.org/namespaces/inkscape"
   id="svg2"
   version="1.1"
   inkscape:version="0.91 r13725"
   xml:space="preserve"
   width="559.96484"
   height="167.92842"
   viewBox="0 0 559.96484 167.92842"
   sodipodi:docname="pi.svg"><metadata
     id="metadata8"><rdf:RDF><cc:Work
         rdf:about=""><dc:format>image/svg+xml</dc:format><dc:type
           rdf:resource="http://purl.org/dc/dcmitype/StillImage" /><dc:title></dc:title></cc:Work></rdf:RDF></metadata><defs
     id="defs6" /><sodipodi:namedview
     pagecolor="#ffffff"
     bordercolor="#666666"
     borderopacity="1"
     objecttolerance="10"
     gridtolerance="10"
     guidetolerance="10"
     inkscape:pageopacity="0"
     inkscape:pageshadow="2"
     inkscape:window-width="1920"
     inkscape:window-height="1017"
     id="namedview4"
     showgrid="false"
     fit-margin-top="0"
     fit-margin-left="0"
     fit-margin-right="0"
     fit-margin-bottom="0"
     inkscape:zoom="0.76027316"
     inkscape:cx="100.77345"
     inkscape:cy="22.872249"
     inkscape:window-x="-8"
     inkscape:window-y="-8"
     inkscape:window-maximized="1"
     inkscape:current-layer="g10" /><g
     id="g10"
     inkscape:groupmode="layer"
     inkscape:label="U6_Z_Smith_print"
     transform="matrix(1.25,0,0,-1.25,-435.51614,-16.708287)"><path
       d="m 348.72341,-87.045829 0.58,4.719 1.863,4.098 2.442,3.766 3.684,2.815 4.305,1.573 4.305,0.621 4.595,-0.621 3.973,-1.573 3.684,-2.815 2.774,-3.766 1.863,-4.098 0.62,-4.719 -0.62,-4.388 -1.863,-4.429 -2.774,-3.767 -3.684,-2.815001 -3.973,-1.573 -4.595,-0.621 -4.305,0.621 -4.305,1.573 -3.684,2.815001 -2.442,3.767 -1.863,4.429 -0.58,4.388 z"
       style="fill:#ffffff;fill-opacity:1;fill-rule:evenodd;stroke:#000000;stroke-width:0.62099999;stroke-linecap:round;stroke-linejoin:round;stroke-miterlimit:10;stroke-dasharray:none;stroke-opacity:1"
       id="path290"
       inkscape:connector-curvature="0" /><path
       d="m 365.90241,-87.045829 0.621,-2.525 1.531,-2.194 2.443,-0.952 2.442,0 2.483,0.952 1.532,2.194 0.621,2.525 m -23.015,0 0.579,2.525 1.532,2.194 2.152,0.952 2.774,0 2.152,-0.952 1.532,-2.194 0.621,-2.525"
       style="fill:none;stroke:#000000;stroke-width:0.62099999;stroke-linecap:round;stroke-linejoin:round;stroke-miterlimit:10;stroke-dasharray:none;stroke-opacity:1"
       id="path292"
       inkscape:connector-curvature="0" /><text
       y="95.894676"
       x="373.76547"
       transform="scale(1.0462973,-0.9557513)"
       style="font-variant:normal;font-weight:normal;font-size:16.45794296px;font-family:Symbol;-inkscape-font-specification:Symbol;writing-mode:lr-tb;fill:#000000;fill-opacity:1;fill-rule:nonzero;stroke:none"
       id="text294"><tspan
         x="373.76547"
         y="95.894676"
         id="tspan296">ω</tspan></text>
<text
       y="96.980553"
       x="400.59039"
       style="font-variant:normal;font-weight:normal;font-size:10.38990021px;font-family:Arial;-inkscape-font-specification:Arial;writing-mode:lr-tb;fill:#000000;fill-opacity:1;fill-rule:nonzero;stroke:none"
       id="text298"
       transform="scale(1,-1)"><tspan
         x="400.59039"
         y="96.980553"
         id="tspan300">o</tspan></text>
<path
       d="m 358.24441,-146.44683 15.316,0 m -19,3.767 23.015,0 m -11.673,39.283 0,-39.283 m 23.015,102.450001 2.442,5.961 4.926,-11.921 4.595,11.921 4.926,-11.921 4.884,11.921 4.636,-11.921 2.442,5.96 73.351,0 m -123.686,0 21.484,0"
       style="fill:none;stroke:#000000;stroke-width:0.62099999;stroke-linecap:round;stroke-linejoin:round;stroke-miterlimit:10;stroke-dasharray:none;stroke-opacity:1"
       id="path302"
       inkscape:connector-curvature="0" /><text
       y="24.267244"
       x="399.66995"
       transform="scale(0.98542109,-1.0147946)"
       style="font-variant:normal;font-weight:normal;font-size:15.50037861px;font-family:Arial;-inkscape-font-specification:Arial;writing-mode:lr-tb;fill:#000000;fill-opacity:1;fill-rule:nonzero;stroke:none"
       id="text304"><tspan
         x="399.66995 410.88293"
         y="24.267244"
         sodipodi:role="line"
         id="tspan306">Rs</tspan></text>
<path
       d="m 367.43341,-40.229829 0,-30.466 m 399.328,32.37 -213.634,0.911"
       style="fill:none;stroke:#000000;stroke-width:0.62099999;stroke-linecap:round;stroke-linejoin:round;stroke-miterlimit:10;stroke-dasharray:none;stroke-opacity:1"
       id="path308"
       inkscape:connector-curvature="0" /><path
       d="m 490.49841,-15.392829 63.25,0 0,-42.76 -63.25,0 0,42.76 z"
       style="fill:none;stroke:#000000;stroke-width:0.62099999;stroke-linecap:butt;stroke-linejoin:miter;stroke-miterlimit:10;stroke-dasharray:none;stroke-opacity:1"
       id="path310"
       inkscape:connector-curvature="0" /><text
       y="42.703197"
       x="507.29642"
       transform="scale(0.99112075,-1.0089588)"
       style="font-variant:normal;font-weight:normal;font-size:20.88241959px;font-family:Tahoma;-inkscape-font-specification:Tahoma;writing-mode:lr-tb;fill:#000000;fill-opacity:1;fill-rule:nonzero;stroke:none"
       id="text312"><tspan
         x="507.29642"
         y="42.703197"
         id="tspan314">-</tspan></text>
<text
       y="43.041172"
       x="513.19299"
       transform="scale(0.99409014,-1.005945)"
       style="font-variant:normal;font-weight:normal;font-size:20.94498062px;font-family:Arial;-inkscape-font-specification:Arial;writing-mode:lr-tb;fill:#000000;fill-opacity:1;fill-rule:nonzero;stroke:none"
       id="text316"><tspan
         x="513.19299 526.47632"
         y="43.041172"
         sodipodi:role="line"
         id="tspan318">Xs</tspan></text>
<text
       y="49.069462"
       x="546.20178"
       transform="scale(0.97728735,-1.0232405)"
       style="font-variant:normal;font-weight:normal;font-size:13.51158333px;font-family:Arial;-inkscape-font-specification:Arial;writing-mode:lr-tb;fill:#000000;fill-opacity:1;fill-rule:nonzero;stroke:none"
       id="text320"><tspan
         x="546.20178"
         y="49.069462"
         id="tspan322">1</tspan></text>
<path
       d="m 699.53741,-144.87383 7.658,0 m -11.673,3.767 15.357,0 m -19.041,4.098 23.015,0 m -11.632,32.37 0,-32.37"
       style="fill:none;stroke:#000000;stroke-width:0.62099999;stroke-linecap:round;stroke-linejoin:round;stroke-miterlimit:10;stroke-dasharray:none;stroke-opacity:1"
       id="path324"
       inkscape:connector-curvature="0" /><path
       d="m 678.96441,-60.967829 53.108,0 0,-42.719001 -53.108,0 0,42.719001 z"
       style="fill:none;stroke:#000000;stroke-width:0.62099999;stroke-linecap:butt;stroke-linejoin:miter;stroke-miterlimit:10;stroke-dasharray:none;stroke-opacity:1"
       id="path326"
       inkscape:connector-curvature="0" /><text
       y="88.305397"
       x="693.49432"
       transform="scale(0.99409014,-1.005945)"
       style="font-variant:normal;font-weight:normal;font-size:20.94498062px;font-family:Arial;-inkscape-font-specification:Arial;writing-mode:lr-tb;fill:#000000;fill-opacity:1;fill-rule:nonzero;stroke:none"
       id="text328"><tspan
         x="693.49432 706.77765"
         y="88.305397"
         sodipodi:role="line"
         id="tspan330">Xp</tspan></text>
<text
       y="93.609009"
       x="730.53485"
       transform="scale(0.97728735,-1.0232405)"
       style="font-variant:normal;font-weight:normal;font-size:13.51158333px;font-family:Arial;-inkscape-font-specification:Arial;writing-mode:lr-tb;fill:#000000;fill-opacity:1;fill-rule:nonzero;stroke:none"
       id="text332"><tspan
         x="730.53485"
         y="93.609009"
         id="tspan334">2</tspan></text>
<path
       d="m 703.22141,-37.704829 0,-23.594"
       style="fill:none;stroke:#000000;stroke-width:0.62099999;stroke-linecap:round;stroke-linejoin:round;stroke-miterlimit:10;stroke-dasharray:none;stroke-opacity:1"
       id="path336"
       inkscape:connector-curvature="0" /><path
       d="m 703.22141,-41.181829 1.821,0.662 1.242,1.242 0.29,1.573 -0.29,1.573 -1.242,1.242 -1.821,0.331 -1.531,-0.331 -1.242,-1.242 -0.29,-1.573 0.29,-1.573 1.242,-1.242 1.531,-0.662"
       style="fill:#000000;fill-opacity:1;fill-rule:evenodd;stroke:none"
       id="path338"
       inkscape:connector-curvature="0" /><path
       d="m 446.3304,-147.39883 7.65801,0 m -11.67301,3.809 15.35701,0 m -19.04101,4.056 23.01501,0 m -11.632,32.701 0,-32.701"
       style="fill:none;stroke:#000000;stroke-width:0.62099999;stroke-linecap:round;stroke-linejoin:round;stroke-miterlimit:10;stroke-dasharray:none;stroke-opacity:1"
       id="path340"
       inkscape:connector-curvature="0" /><path
       d="m 425.75741,-63.492829 53.108,0 0,-42.719001 -53.108,0 0,42.719001 z"
       style="fill:none;stroke:#000000;stroke-width:0.62099999;stroke-linecap:butt;stroke-linejoin:miter;stroke-miterlimit:10;stroke-dasharray:none;stroke-opacity:1"
       id="path342"
       inkscape:connector-curvature="0" /><text
       y="90.815529"
       x="438.78235"
       transform="scale(0.99409014,-1.005945)"
       style="font-variant:normal;font-weight:normal;font-size:20.94498062px;font-family:Arial;-inkscape-font-specification:Arial;writing-mode:lr-tb;fill:#000000;fill-opacity:1;fill-rule:nonzero;stroke:none"
       id="text344"><tspan
         x="438.78235 452.06564"
         y="90.815529"
         sodipodi:role="line"
         id="tspan346">Xp</tspan></text>
<text
       y="96.07666"
       x="471.44354"
       transform="scale(0.97728735,-1.0232405)"
       style="font-variant:normal;font-weight:normal;font-size:13.51158333px;font-family:Arial;-inkscape-font-specification:Arial;writing-mode:lr-tb;fill:#000000;fill-opacity:1;fill-rule:nonzero;stroke:none"
       id="text348"><tspan
         x="471.44354"
         y="96.07666"
         id="tspan350">1</tspan></text>
<path
       d="m 450.01441,-40.229829 0,-23.553"
       style="fill:none;stroke:#000000;stroke-width:0.62099999;stroke-linecap:round;stroke-linejoin:round;stroke-miterlimit:10;stroke-dasharray:none;stroke-opacity:1"
       id="path352"
       inkscape:connector-curvature="0" /><path
       d="m 450.01441,-43.375829 1.822,0.331 1.241,1.242 0.29,1.573 -0.29,1.573 -1.241,1.242 -1.822,0.662 -1.573,-0.662 -1.2,-1.242 -0.331,-1.573 0.331,-1.573 1.2,-1.242 1.573,-0.331"
       style="fill:#000000;fill-opacity:1;fill-rule:evenodd;stroke:none"
       id="path354"
       inkscape:connector-curvature="0" /><path
       d="m 766.76141,-90.812829 5.505,2.525 -11.342,4.677 11.342,5.05 -11.342,4.719 11.342,5.009 -11.342,5.05 5.837,2.194 0,23.263 m 0,-80.759001 0,28.272001"
       style="fill:none;stroke:#000000;stroke-width:0.62099999;stroke-linecap:round;stroke-linejoin:round;stroke-miterlimit:10;stroke-dasharray:none;stroke-opacity:1"
       id="path356"
       inkscape:connector-curvature="0" /><text
       y="79.986969"
       x="791.4632"
       transform="scale(0.98542109,-1.0147946)"
       style="font-variant:normal;font-weight:normal;font-size:15.50037861px;font-family:Arial;-inkscape-font-specification:Arial;writing-mode:lr-tb;fill:#000000;fill-opacity:1;fill-rule:nonzero;stroke:none"
       id="text358"><tspan
         x="791.4632"
         y="79.986969"
         id="tspan360">R</tspan></text>
<text
       y="86.632042"
       x="790.97675"
       style="font-variant:normal;font-weight:normal;font-size:10.38990021px;font-family:Arial;-inkscape-font-specification:Arial;writing-mode:lr-tb;fill:#000000;fill-opacity:1;fill-rule:nonzero;stroke:none"
       id="text362"
       transform="scale(1,-1)"><tspan
         x="790.97675"
         y="86.632042"
         id="tspan364">L</tspan></text>
<path
       d="m 762.74641,-145.82583 7.699,0 m -11.383,4.098 15.357,0 m -19.331,3.767 23.015,0 m -11.342,18.876 0,-18.876 m -186.025,48.390001 5.837,2.525 -11.673,5.008 11.673,4.719 -11.673,5.05 11.673,4.719 -11.673,5.009 5.836,2.525 0,23.263 m 0,-81.090001 0,28.272001"
       style="fill:none;stroke:#000000;stroke-width:0.62099999;stroke-linecap:round;stroke-linejoin:round;stroke-miterlimit:10;stroke-dasharray:none;stroke-opacity:1"
       id="path366"
       inkscape:connector-curvature="0" /><text
       y="88.349091"
       x="600.25018"
       transform="scale(0.98542109,-1.0147946)"
       style="font-variant:normal;font-weight:normal;font-size:15.50037861px;font-family:Arial;-inkscape-font-specification:Arial;writing-mode:lr-tb;fill:#000000;fill-opacity:1;fill-rule:nonzero;stroke:none"
       id="text368"><tspan
         x="600.25018"
         y="88.349091"
         id="tspan370">R</tspan></text>
<text
       y="94.786644"
       x="602.55139"
       style="font-variant:normal;font-weight:normal;font-size:10.38990021px;font-family:Arial;-inkscape-font-specification:Arial;writing-mode:lr-tb;fill:#000000;fill-opacity:1;fill-rule:nonzero;stroke:none"
       id="text372"
       transform="scale(1,-1)"><tspan
         x="602.55139 609.28094 611.38696 614.78137 617.51495 623.09119 628.30487"
         y="94.786644"
         sodipodi:role="line"
         id="tspan374">Virtual</tspan></text>
<path
       d="m 576.76341,-144.25283 7.657,0 m -11.341,3.767 15.357,0 m -19.373,4.098 23.057,0 m -11.384,18.545 0,-18.545"
       style="fill:none;stroke:#000000;stroke-width:0.62099999;stroke-linecap:round;stroke-linejoin:round;stroke-miterlimit:10;stroke-dasharray:none;stroke-opacity:1"
       id="path376"
       inkscape:connector-curvature="0" /><path
       d="m 601.93041,-58.773829 63.209,0 0,42.76 -63.209,0 0,-42.76 z"
       style="fill:#ffffff;fill-opacity:1;fill-rule:nonzero;stroke:#000000;stroke-width:0.62099999;stroke-linecap:butt;stroke-linejoin:miter;stroke-miterlimit:10;stroke-dasharray:none;stroke-opacity:1"
       id="path378"
       inkscape:connector-curvature="0" /><text
       y="43.318554"
       x="619.68542"
       transform="scale(0.99112075,-1.0089588)"
       style="font-variant:normal;font-weight:normal;font-size:20.88241959px;font-family:Tahoma;-inkscape-font-specification:Tahoma;writing-mode:lr-tb;fill:#000000;fill-opacity:1;fill-rule:nonzero;stroke:none"
       id="text380"><tspan
         x="619.68542"
         y="43.318554"
         id="tspan382">-</tspan></text>
<text
       y="43.658421"
       x="625.24634"
       transform="scale(0.99409014,-1.005945)"
       style="font-variant:normal;font-weight:normal;font-size:20.94498062px;font-family:Arial;-inkscape-font-specification:Arial;writing-mode:lr-tb;fill:#000000;fill-opacity:1;fill-rule:nonzero;stroke:none"
       id="text384"><tspan
         x="625.24634 638.5296"
         y="43.658421"
         sodipodi:role="line"
         id="tspan386">Xs</tspan></text>
<text
       y="49.676273"
       x="660.1817"
       transform="scale(0.97728735,-1.0232405)"
       style="font-variant:normal;font-weight:normal;font-size:13.51158333px;font-family:Arial;-inkscape-font-specification:Arial;writing-mode:lr-tb;fill:#000000;fill-opacity:1;fill-rule:nonzero;stroke:none"
       id="text388"><tspan
         x="660.1817"
         y="49.676273"
         id="tspan390">2</tspan></text>
</g></svg>